<?xml version="1.0" standalone="no"?>
<!DOCTYPE svg PUBLIC "-//W3C//DTD SVG 20010904//EN"
 "http://www.w3.org/TR/2001/REC-SVG-20010904/DTD/svg10.dtd">
<svg version="1.0" xmlns="http://www.w3.org/2000/svg"
 width="490.000000pt" height="490.000000pt" viewBox="0 0 490.000000 490.000000"
 preserveAspectRatio="xMidYMid meet">

<g transform="translate(0.000000,490.000000) scale(0.100000,-0.100000)"
fill="#000000" stroke="none">
<path d="M0 2450 l0 -2450 2450 0 2450 0 0 2450 0 2450 -2450 0 -2450 0 0
-2450z m1739 924 c47 -14 172 -52 276 -84 105 -32 222 -67 261 -79 l71 -21 7
-142 c3 -79 13 -294 21 -478 14 -321 59 -762 76 -742 3 4 18 97 33 207 20 154
31 308 47 675 11 261 22 476 23 478 4 3 187 59 554 169 84 25 154 44 156 42 3
-2 -45 -164 -105 -359 -100 -322 -114 -362 -161 -435 -28 -44 -75 -120 -106
-168 -30 -48 -56 -86 -58 -84 -2 2 29 169 70 370 53 268 70 367 60 367 -27 0
-214 -73 -214 -84 0 -6 -16 -157 -35 -336 -20 -179 -38 -350 -41 -380 -5 -53
-214 -760 -224 -760 -3 0 -53 159 -113 353 l-107 352 -41 390 c-22 215 -43
393 -47 396 -12 11 -212 73 -217 67 -3 -2 29 -168 70 -367 41 -199 75 -367 75
-373 0 -14 -198 296 -215 337 -8 17 -52 156 -98 310 -47 154 -94 308 -105 343
-11 35 -16 62 -10 62 6 0 49 -12 97 -26z"/>
<path d="M1828 3323 c7 -3 16 -2 19 1 4 3 -2 6 -13 5 -11 0 -14 -3 -6 -6z"/>
<path d="M1868 3313 c7 -3 16 -2 19 1 4 3 -2 6 -13 5 -11 0 -14 -3 -6 -6z"/>
</g>
</svg>
